<!-- highBalls -->
<svg id="highBalls" width="100" height="80" xmlns="http://www.w3.org/2000/svg">
  <!-- Ball 9 -->
  <g class="ball">
    <circle cx="40" cy="40" r="28" fill="LIGHTYELLOW"></circle>
    <circle cx="40" cy="40" r="15" fill="WHITE"></circle>
    <rect x="12" y="31" width="56" height="16" fill="white"></rect>
    <text x="40" y="43" font-family="Arial" font-size="23" fill="black" text-anchor="middle" dominant-baseline="middle" pointer-events="none">9</text>
  </g>

  <!-- Ball 10 -->
  <g class="ball">
    <circle cx="102" cy="40" r="28" fill="LIGHTBLUE"></circle>
    <circle cx="102" cy="40" r="15" fill="WHITE"></circle>
    <rect x="74" y="31" width="56" height="16" fill="white"></rect>
    <text x="102" y="43" font-family="Arial" font-size="23" fill="black" text-anchor="middle" dominant-baseline="middle" pointer-events="none">10</text>
  </g>

  <!-- Ball 11 -->
  <g class="ball">
    <circle cx="164" cy="40" r="28" fill="PINK"></circle>
    <circle cx="164" cy="40" r="15" fill="WHITE"></circle>
    <rect x="136" y="31" width="56" height="16" fill="white"></rect>
    <text x="164" y="43" font-family="Arial" font-size="23" fill="black" text-anchor="middle" dominant-baseline="middle" pointer-events="none">11</text>
  </g>

  <!-- Ball 12 -->
  <g class="ball">
    <circle cx="226" cy="40" r="28" fill="MEDIUMPURPLE"></circle>
    <circle cx="226" cy="40" r="15" fill="WHITE"></circle>
    <rect x="198" y="31" width="56" height="16" fill="white"></rect>
    <text x="226" y="43" font-family="Arial" font-size="23" fill="black" text-anchor="middle" dominant-baseline="middle" pointer-events="none">12</text>
  </g>

  <!-- Ball 13 -->
  <g class="ball">
    <circle cx="288" cy="40" r="28" fill="LIGHTSALMON"></circle>
    <circle cx="288" cy="40" r="15" fill="WHITE"></circle>
    <rect x="260" y="31" width="56" height="16" fill="white"></rect>
    <text x="288" y="43" font-family="Arial" font-size="23" fill="black" text-anchor="middle" dominant-baseline="middle" pointer-events="none">13</text>
  </g>

  <!-- Ball 14 -->
  <g class="ball">
    <circle cx="350" cy="40" r="28" fill="LIGHTGREEN"></circle>
    <circle cx="350" cy="40" r="15" fill="WHITE"></circle>
    <rect x="322" y="31" width="56" height="16" fill="white"></rect>
    <text x="350" y="43" font-family="Arial" font-size="23" fill="black" text-anchor="middle" dominant-baseline="middle" pointer-events="none">14</text>
  </g>

  <!-- Ball 15 -->
  <g class="ball">
    <circle cx="412" cy="40" r="28" fill="SANDYBROWN"></circle>
    <circle cx="412" cy="40" r="15" fill="WHITE"></circle>
    <rect x="384" y="31" width="56" height="16" fill="white"></rect>
    <text x="412" y="43" font-family="Arial" font-size="23" fill="black" text-anchor="middle" dominant-baseline="middle" pointer-events="none">15</text>
  </g>
</svg>
